<?xml version="1.0" standalone="no"?>
<!DOCTYPE svg PUBLIC "-//W3C//DTD SVG 20010904//EN"
 "http://www.w3.org/TR/2001/REC-SVG-20010904/DTD/svg10.dtd">
<svg version="1.0" xmlns="http://www.w3.org/2000/svg"
 width="304.000000pt" height="304.000000pt" viewBox="0 0 304.000000 304.000000"
 preserveAspectRatio="xMidYMid meet">
<metadata>
Created by potrace 1.11, written by Peter Selinger 2001-2013
</metadata>
<g transform="translate(0.000000,304.000000) scale(0.100000,-0.100000)"
fill="#000000" stroke="none">
<path d="M1362 3020 c-183 -44 -349 -175 -431 -340 -40 -83 -70 -192 -71 -257
l0 -33 661 0 660 0 -6 63 c-20 225 -173 436 -383 530 -126 55 -295 70 -430 37z"/>
<path d="M885 2330 c-67 -15 -117 -54 -150 -120 -16 -30 -18 -65 -20 -235 -1
-110 1 -206 3 -212 3 -10 50 -13 188 -13 l184 0 0 -23 0 -24 -167 -1 c-93 0
-177 -1 -188 -1 -20 -1 -20 -7 -19 -188 1 -154 5 -196 19 -231 23 -57 85 -108
144 -120 27 -6 306 -9 666 -8 614 1 620 1 660 23 102 55 117 96 118 337 l1
189 -187 0 -187 -1 0 24 0 24 185 0 c169 0 185 1 186 18 7 134 2 384 -9 416
-18 56 -56 102 -105 128 l-42 23 -625 1 c-344 0 -638 -3 -655 -6z"/>
<path d="M457 2144 c-166 -31 -308 -158 -377 -339 -18 -47 -24 -87 -28 -180
l-4 -121 81 1 81 1 0 -78 c0 -77 0 -78 -25 -78 -19 0 -25 -5 -26 -22 0 -13 -2
-32 -3 -43 -2 -11 -6 -47 -10 -80 -4 -33 -11 -94 -16 -135 -11 -89 -17 -143
-26 -227 l-7 -63 275 0 275 0 -3 25 c-1 14 -5 53 -9 88 -3 34 -8 73 -10 87 -2
14 -7 50 -10 80 -6 59 -24 209 -30 250 -2 14 -4 28 -4 33 -1 4 -11 7 -24 7
-22 0 -23 4 -25 75 -1 54 2 75 10 76 17 2 67 6 99 8 l25 1 0 322 -1 322 -71 1
c-39 0 -101 -5 -137 -11z"/>
<path d="M2379 2156 c-5 -3 -4 -646 0 -647 3 -1 33 -2 66 -3 l60 -1 3 -78 c3
-77 3 -77 -23 -77 -14 0 -26 -3 -26 -7 -2 -12 -6 -43 -13 -108 -3 -33 -8 -71
-10 -85 -4 -22 -11 -78 -22 -180 -2 -19 -7 -55 -10 -80 -3 -25 -7 -60 -9 -77
l-3 -33 275 0 275 0 -7 68 c-4 37 -8 78 -10 92 -6 51 -26 226 -31 270 -8 74
-15 124 -20 132 -3 5 -14 8 -25 8 -17 0 -19 7 -19 78 l0 78 78 -1 77 0 0 120
c-1 108 -3 127 -28 189 -72 178 -200 291 -377 333 -13 3 -197 11 -201 9z"/>
<path d="M879 1108 c-1 -2 -2 -76 -3 -165 l-1 -163 227 0 228 0 0 165 0 165
-225 0 c-124 0 -226 -1 -226 -2z"/>
<path d="M1709 1068 c-2 -108 1 -280 5 -286 2 -4 105 -5 228 -2 l223 5 1 150
c0 83 -2 156 -4 163 -3 9 -58 12 -228 12 l-224 0 -1 -42z"/>
<path d="M100 725 c0 -25 51 -114 89 -157 91 -103 218 -157 402 -173 l59 -5
-2 172 -3 173 -273 0 c-175 0 -272 -4 -272 -10z"/>
<path d="M805 730 c-2 -3 -6 -23 -10 -45 -4 -22 -9 -49 -12 -60 -18 -93 -23
-120 -29 -162 -3 -26 -8 -50 -9 -53 -2 -3 -6 -26 -10 -50 -3 -25 -10 -62 -15
-83 -4 -20 -5 -37 -1 -38 8 -1 610 -1 639 0 22 1 23 4 18 61 -3 33 -8 105 -12
161 -3 56 -7 111 -9 121 -2 10 -5 48 -6 83 -1 36 -5 66 -8 66 -20 4 -533 3
-536 -1z"/>
<path d="M1695 730 c-1 -3 -6 -57 -9 -120 -4 -63 -9 -131 -11 -150 -14 -153
-15 -218 -3 -221 10 -4 597 -3 646 0 7 1 11 4 9 9 -3 4 -8 23 -11 42 -3 19 -8
49 -11 65 -3 17 -19 107 -36 200 -17 94 -33 172 -35 175 -7 6 -535 6 -539 0z"/>
<path d="M2407 732 c-15 -3 -17 -22 -17 -172 l0 -169 68 4 c154 11 283 64 373
154 51 52 109 144 109 176 0 9 -489 15 -533 7z"/>
<path d="M626 149 c-65 -49 -65 -49 -61 -94 l3 -45 -156 -3 c-86 -1 415 -3
1113 -3 699 0 1198 3 1109 6 l-160 5 1 43 c1 42 -1 45 -62 91 l-64 48 -364 0
c-262 0 -365 -3 -366 -11 -1 -6 -1 -48 0 -94 l0 -82 -99 0 -100 0 1 63 c0 34
0 76 0 93 l-1 31 -365 1 -365 0 -64 -49z"/>
</g>
</svg>
